<svg width="288" height="72" viewBox="0 0 288 72" fill="none" xmlns="http://www.w3.org/2000/svg">
    <mask id="path-1-inside-1_1224_3449" fill="white">
        <path fill-rule="evenodd" clip-rule="evenodd" d="M272.686 4.68629C270.957 2.95677 270.092 2.09202 269.083 1.4736C268.188 0.925311 267.213 0.521268 266.192 0.276301C265.041 0 263.818 0 261.373 0H16C10.3995 0 7.59921 0 5.46008 1.08993C3.57846 2.04867 2.04868 3.57847 1.08994 5.46009C0 7.59921 0 10.3995 0 16V45.3726C0 47.8185 0 49.0414 0.276306 50.1923C0.521271 51.2127 0.925323 52.1881 1.4736 53.0829C2.09201 54.092 2.95679 54.9568 4.68628 56.6863L15.3137 67.3137C17.0432 69.0432 17.908 69.908 18.9171 70.5264C19.8119 71.0747 20.7873 71.4787 21.8077 71.7237C22.9586 72 24.1815 72 26.6274 72H272C277.601 72 280.401 72 282.54 70.9101C284.422 69.9513 285.951 68.4215 286.91 66.5399C288 64.4008 288 61.6005 288 56V26.6274C288 24.1815 288 22.9586 287.724 21.8077C287.479 20.7873 287.075 19.8119 286.526 18.9172C285.908 17.908 285.043 17.0432 283.314 15.3137L272.686 4.68629Z"/>
    </mask>
    <path d="M283.314 15.3137L284.728 13.8995L283.314 15.3137ZM286.526 18.9172L288.232 17.8722L286.526 18.9172ZM282.54 70.9101L283.448 72.6921L282.54 70.9101ZM286.91 66.5399L288.692 67.4479L286.91 66.5399ZM15.3137 67.3137L13.8995 68.7279L15.3137 67.3137ZM18.9171 70.5264L19.9622 68.8211L18.9171 70.5264ZM21.8077 71.7237L22.2746 69.779L21.8077 71.7237ZM0.276306 50.1923L2.22104 49.7254L0.276306 50.1923ZM4.68628 56.6863L6.10049 55.2721L4.68628 56.6863ZM1.4736 53.0829L3.17886 52.0379L1.4736 53.0829ZM266.192 0.276301L266.659 -1.66844L266.192 0.276301ZM269.083 1.4736L268.038 3.17888L269.083 1.4736ZM5.46008 1.08993L6.36807 2.87195L5.46008 1.08993ZM1.08994 5.46009L-0.692078 4.55211L1.08994 5.46009ZM16 -2H261.373V2H16V-2ZM-2 45.3726V16H2V45.3726H-2ZM13.8995 68.7279L3.27206 58.1005L6.10049 55.2721L16.7279 65.8995L13.8995 68.7279ZM272 74H26.6274V70H272V74ZM290 26.6274V56H286V26.6274H290ZM274.101 3.27208L284.728 13.8995L281.899 16.7279L271.272 6.1005L274.101 3.27208ZM286 26.6274C286 24.0863 285.987 23.1417 285.779 22.2746L289.668 21.3408C290.013 22.7754 290 24.2767 290 26.6274H286ZM284.728 13.8995C286.39 15.5617 287.461 16.6142 288.232 17.8722L284.821 19.9621C284.355 19.2018 283.696 18.5248 281.899 16.7279L284.728 13.8995ZM285.779 22.2746C285.583 21.4583 285.26 20.6779 284.821 19.9621L288.232 17.8722C288.89 18.9458 289.374 20.1164 289.668 21.3408L285.779 22.2746ZM272 70C274.833 70 276.838 69.9984 278.405 69.8704C279.949 69.7443 280.891 69.5054 281.632 69.1281L283.448 72.6921C282.049 73.4046 280.522 73.7108 278.731 73.8571C276.963 74.0016 274.767 74 272 74V70ZM290 56C290 58.7673 290.002 60.963 289.857 62.7308C289.711 64.522 289.405 66.0494 288.692 67.4479L285.128 65.6319C285.505 64.8913 285.744 63.949 285.87 62.4051C285.998 60.8379 286 58.8333 286 56H290ZM281.632 69.1281C283.137 68.3611 284.361 67.1372 285.128 65.6319L288.692 67.4479C287.542 69.7058 285.706 71.5416 283.448 72.6921L281.632 69.1281ZM16.7279 65.8995C18.5247 67.6963 19.2018 68.3552 19.9622 68.8211L17.8722 72.2317C16.6142 71.4608 15.5617 70.3901 13.8995 68.7279L16.7279 65.8995ZM26.6274 74C24.2767 74 22.7754 74.0129 21.3408 73.6684L22.2746 69.779C23.1417 69.9871 24.0863 70 26.6274 70V74ZM19.9622 68.8211C20.6779 69.2598 21.4583 69.583 22.2746 69.779L21.3408 73.6684C20.1164 73.3745 18.9458 72.8896 17.8722 72.2317L19.9622 68.8211ZM2 45.3726C2 47.9137 2.01285 48.8583 2.22104 49.7254L-1.66843 50.6592C-2.01285 49.2246 -2 47.7233 -2 45.3726H2ZM3.27206 58.1005C1.60986 56.4383 0.539185 55.3858 -0.231689 54.1278L3.17886 52.0379C3.64484 52.7982 4.30368 53.4752 6.10049 55.2721L3.27206 58.1005ZM2.22104 49.7254C2.41702 50.5417 2.74023 51.3221 3.17886 52.0379L-0.231689 54.1278C-0.889618 53.0542 -1.37448 51.8836 -1.66843 50.6592L2.22104 49.7254ZM261.373 -2C263.723 -2 265.225 -2.01285 266.659 -1.66844L265.725 2.22104C264.858 2.01285 263.914 2 261.373 2V-2ZM271.272 6.1005C269.475 4.30367 268.798 3.64484 268.038 3.17888L270.128 -0.231682C271.386 0.539188 272.438 1.60987 274.101 3.27208L271.272 6.1005ZM266.659 -1.66844C267.884 -1.37448 269.054 -0.889626 270.128 -0.231682L268.038 3.17888C267.322 2.74025 266.542 2.41701 265.725 2.22104L266.659 -1.66844ZM16 2C13.1667 2 11.1621 2.00156 9.59488 2.1296C8.05106 2.25574 7.1087 2.49458 6.36807 2.87195L4.55212 -0.692078C5.95062 -1.40465 7.47797 -1.71077 9.26917 -1.85712C11.037 -2.00156 13.2327 -2 16 -2V2ZM-2 16C-2 13.2327 -2.00156 11.037 -1.85712 9.26916C-1.71075 7.47795 -1.40463 5.95061 -0.692078 4.55211L2.87195 6.36808C2.49457 7.1087 2.25574 8.05104 2.12961 9.59488C2.00156 11.1621 2 13.1667 2 16H-2ZM6.36807 2.87195C4.86279 3.63893 3.63895 4.86278 2.87195 6.36808L-0.692078 4.55211C0.458405 2.29417 2.29416 0.458402 4.55212 -0.692078L6.36807 2.87195Z" fill="#EEDDA0" mask="url(#path-1-inside-1_1224_3449)"/>
</svg>